{"title":"Daybreakers (2009) DVDSCR.SWESUB-kNuLfiE","uid":5362882,"size":1258624712,"categoryP":"video","categoryS":"movies","magnet":"?xt=urn:btih:acfb3b38abf6aa152e0d555a80e0296f3397b07a&amp;dn=Daybreakers+%282009%29+DVDSCR.SWESUB-kNuLfiE&amp;tr=udp%3A%2F%2Ftracker.openbittorrent.com%3A80&amp;tr=udp%3A%2F%2Fopen.demonii.com%3A1337&amp;tr=udp%3A%2F%2Ftracker.coppersurfer.tk%3A6969&amp;tr=udp%3A%2F%2Fexodus.desync.com%3A6969","seeders":0,"leechers":2,"uploader":"knulfie","files":1,"time":1266168773,"description":"Hittade inte denna med svensk text hÃƒÂ¤r pÃƒÂ¥ Pirate Bay sÃƒÂ¥ hade jag den pÃƒÂ¥ datorn sÃƒÂ¥ tÃƒÂ¤nkte lÃƒÂ¤gga upp den.\n----------------------------------------------------------------------------------\nText: Swedish \n\nSource: Daybreakers (2009) DVDSCR XviD-MAX\n\nFormat                           : AVI\nFormat/Info                      : Audio Video Interleave\nFormat profile                   : OpenDML\nFile size                        : 900 MiB\nDuration                         : 1h 33mn\nOverall bit rate                 : 1 341 Kbps\nWriting application              : VirtualDubMod 1.5.10.2 (build 2542/release)\nWriting library                  : VirtualDubMod build 2542/release\nOriginal source form             : MAX TORRENTZ\nCopyright                        : SIGISMUNT\n\nVideo\nFormat                           : xvid\nCodec ID                         : xvid\nDuration                         : 1h 33mn\nBit rate                         : 1 209 Kbps\nWidth                            : 720 pixels\nHeight                           : 320 pixels\nDisplay aspect ratio             : 2.25:1\nFrame rate                       : 25.000 fps\nResolution                       : 24 bits\nBits/(Pixel*Frame)               : 0.210\nStream size                      : 812 MiB (90%)\n\nAudio\nID                               : 1\nFormat                           : MPEG Audio\nFormat version                   : Version 1\nFormat profile                   : Layer 3\nCodec ID                         : 55\nCodec ID/Hint                    : MP3\nDuration                         : 1h 33mn\nBit rate mode                    : Constant\nBit rate                         : 128 Kbps\nChannel(s)                       : 2 channels\nSampling rate                    : 48.0 KHz\nResolution                       : 16 bits\nStream size                      : 85.9 MiB (10%)\nAlignment                        : Aligned on interleaves\nInterleave, duration             : 639 ms (15.98 video frames)\nInterleave, preload duration     : 216 ms\nWriting library                  : LAME3.96.1\n &lt;a href=&quot;\nhttp://www.imdb.com/title/tt0433362/&quot; rel=&quot;nofollow&quot; target=&quot;_NEW&quot;&gt;\nhttp://www.imdb.com/title/tt0433362/&lt;/a&gt;\n","torrent":{"xt":"urn:btih:acfb3b38abf6aa152e0d555a80e0296f3397b07a","amp;dn":"Daybreakers+%282009%29+DVDSCR.SWESUB-kNuLfiE","amp;tr":["udp%3A%2F%2Ftracker.openbittorrent.com%3A80","udp%3A%2F%2Fopen.demonii.com%3A1337","udp%3A%2F%2Ftracker.coppersurfer.tk%3A6969","udp%3A%2F%2Fexodus.desync.com%3A6969"],"infoHash":"acfb3b38abf6aa152e0d555a80e0296f3397b07a","infoHashBuffer":{"type":"Buffer","data":[172,251,59,56,171,246,170,21,46,13,85,90,128,224,41,111,51,151,176,122]},"announce":[],"urlList":[]}}